<?xml version="1.0" encoding="UTF-8" standalone="no"?>
<svg
   version="1.2"
   viewBox="0 0 297.68982 106.98328"
   width="221.14101"
   height="98.690002"
   id="svg72"
   sodipodi:docname="eea-logo-white-by.svg"
   inkscape:version="1.1.2 (0a00cf5339, 2022-02-04)"
   xmlns:inkscape="http://www.inkscape.org/namespaces/inkscape"
   xmlns:sodipodi="http://sodipodi.sourceforge.net/DTD/sodipodi-0.dtd"
   xmlns="http://www.w3.org/2000/svg"
   xmlns:svg="http://www.w3.org/2000/svg">
  <sodipodi:namedview
     id="namedview41"
     pagecolor="#ffffff"
     bordercolor="#999999"
     borderopacity="1"
     inkscape:pageshadow="0"
     inkscape:pageopacity="0"
     inkscape:pagecheckerboard="0"
     showgrid="false"
     inkscape:zoom="2.6076923"
     inkscape:cx="143.61357"
     inkscape:cy="86.091446"
     inkscape:window-width="1868"
     inkscape:window-height="1016"
     inkscape:window-x="52"
     inkscape:window-y="27"
     inkscape:window-maximized="1"
     inkscape:current-layer="svg72" />
  <defs
     id="defs76" />
  <style
     id="style2">.a{fill:#fff}</style>
  <g
     id="g1017"
     transform="translate(0,-8.8322795)"
     style="fill:#ffffff">
    <path
       class="a"
       d="m 53.089044,100.33365 c -3.488222,0 -6.721209,-0.765707 -9.784039,-2.126956 l 3.488223,-6.380886 c 1.956808,0.850786 4.083772,1.276179 6.295816,1.276179 9.443724,0 17.015719,-8.082467 17.015719,-18.036662 0,-5.700266 -2.807594,-10.549746 -6.721209,-13.867812 l 3.743458,-6.63613 c 1.020943,0.765707 1.956808,1.616493 2.892673,2.552358 4.509165,4.764401 6.976444,11.145296 6.976444,17.951584 0,13.952889 -10.719903,25.268325 -23.907085,25.268325 z"
       id="path4-3"
       style="fill:#ffffff;stroke-width:0.850786" />
    <path
       class="a"
       d="M 59.469939,58.815313 59.299781,58.98547 59.044546,58.90039 C 58.619153,58.645155 58.19376,58.474997 57.683288,58.30484 q -0.59555,-0.170157 -1.276179,-0.340314 l -0.170157,-0.08508 -0.08508,-0.255236 c -2.126964,-8.082466 1.531415,-21.014413 8.592939,-30.628294 1.361257,-1.871729 2.807593,-3.488223 4.253929,-4.934559 l 0.510472,-0.425393 0.08508,0.680629 q 0.59555,3.062829 0.680628,6.551052 C 70.36,40.948806 65.850833,53.540438 59.469939,58.815311 Z"
       id="path6-6"
       style="fill:#ffffff;stroke-width:0.850786" />
    <path
       class="a"
       d="m 49.856057,25.63466 c 5.189795,10.719903 6.380895,24.162322 2.807594,31.904474 l -0.08508,0.170157 h -0.255235 c -0.425393,0.08508 -0.935865,0.08508 -1.446337,0.170157 q -0.59555,0.08508 -1.276178,0.340315 h -0.255236 l -0.08508,-0.170158 c -5.359951,-6.295816 -7.486916,-19.568077 -5.189794,-31.47908 0.510471,-2.297122 1.106022,-4.509166 1.78665,-6.465973 l 0.255236,-0.680629 0.425393,0.59555 c 1.1911,1.616493 2.297122,3.573301 3.318065,5.615187 z"
       id="path8-7"
       style="fill:#ffffff;stroke-width:0.850786" />
    <path
       class="a"
       d="m 45.346892,59.58102 v 0.255236 l -0.170157,0.08508 q -0.680629,0.425393 -1.276179,0.850786 -0.595551,0.340315 -1.020944,0.850786 l -0.170157,0.170158 -0.255236,-0.08508 C 35.052382,58.474998 27.565465,47.584938 24.672793,35.844092 q -0.850786,-3.488223 -1.106022,-6.636131 l -0.08508,-0.680628 0.59555,0.255235 c 1.78665,0.935865 3.573301,2.126965 5.359951,3.488223 9.10341,7.23168 15.824619,18.717291 15.909698,27.310229 z"
       id="path10-5"
       style="fill:#ffffff;stroke-width:0.850786" />
    <path
       class="a"
       d="m 7.4018378,47.755095 -0.3403144,-0.59555 h 0.6806288 c 1.8717291,0 3.9986938,0.255236 6.2107378,0.680629 11.230374,2.126965 22.035356,9.358645 25.608657,17.015719 l 0.08508,0.170157 -0.08508,0.170157 c -0.340314,0.425393 -0.59555,0.935865 -0.765707,1.361258 q -0.340315,0.59555 -0.59555,1.276179 l -0.08508,0.170157 -0.255236,0.08508 C 29.862587,68.68443 18.632213,62.388614 11.060218,53.200125 9.6138813,51.413475 8.3377024,49.626824 7.4018378,47.755095 Z"
       id="path12-3"
       style="fill:#ffffff;stroke-width:0.850786" />
    <path
       class="a"
       d="M 6.1256589,75.065325 C 4.0837726,74.214539 2.2120435,73.108517 0.51047154,72.002495 L -3.3186636e-8,71.577102 0.59555014,71.321866 C 2.2971221,70.386002 4.3390084,69.620294 6.3808947,68.939666 17.441112,65.706679 30.117823,67.067937 36.583796,72.257731 l 0.170158,0.170157 v 0.255236 c -0.08508,0.510471 -0.170158,1.020943 -0.170158,1.531415 q 0,0.680628 0,1.361257 l 0.08508,0.255236 -0.255236,0.08508 C 29.522273,80.17004 16.845562,79.829726 6.1256589,75.065325 Z"
       id="path14-5"
       style="fill:#ffffff;stroke-width:0.850786" />
    <path
       class="a"
       d="m 10.804982,97.185759 q -3.3180656,0.255236 -6.2958164,-0.08508 l -0.6806288,-0.08508 0.425393,-0.59555 C 5.4450301,94.71848 6.8913662,93.101987 8.5078596,91.570572 17.015719,83.573184 28.926723,78.808783 36.924111,80.425276 l 0.170157,0.08508 0.08508,0.255235 q 0.255235,0.680629 0.510471,1.446337 c 0.170157,0.425393 0.340314,0.765707 0.59555,1.1911 l 0.08508,0.255236 -0.08508,0.170157 c -4.424088,7.061522 -15.909698,12.67671 -27.480387,13.357338 z"
       id="path16-6"
       style="fill:#ffffff;stroke-width:0.850786" />
    <path
       class="a"
       d="m 43.219927,89.528686 0.170157,0.170157 v 0.255236 c -1.020943,8.337694 -9.018331,18.802351 -19.057605,24.842931 -1.956808,1.10602 -3.913616,2.12697 -5.785345,2.8076 l -0.59555,0.25523 0.08508,-0.76571 c 0.425393,-2.04188 1.020944,-4.16885 1.87173,-6.29581 C 24.077243,99.567943 32.840338,89.783922 40.667569,87.4868 h 0.255236 l 0.170157,0.170157 q 0.510471,0.59555 1.020943,1.106021 c 0.340314,0.255236 0.680629,0.510472 1.106022,0.765708 z"
       id="path18-2"
       style="fill:#ffffff;stroke-width:0.850786" />
    <path
       class="a"
       d="m 87.20556,83.743341 c -0.59555,2.722515 -0.170157,1.276179 -1.020942,3.828537 2.722514,1.786651 6.551051,4.509166 8.933252,7.061524 1.276178,1.361257 2.467279,2.807593 3.403143,4.168842 q -1.531414,3.403136 -3.573301,6.465966 c -1.616493,-0.0851 -3.488222,-0.51047 -5.274873,-0.93587 -3.318064,-0.85078 -7.486915,-2.97775 -10.294509,-4.509161 -1.701572,2.041891 -0.765707,1.020941 -2.637436,2.892671 1.616493,2.89267 3.743458,7.23168 4.764401,10.63483 0.510472,1.78665 0.935865,3.5733 1.1911,5.18979 -1.956807,1.44634 -3.998694,2.80759 -6.125659,3.99869 -1.361257,-0.85078 -2.892672,-2.04188 -4.168851,-3.31806 -2.552358,-2.3822 -5.274873,-6.3809 -7.146602,-9.18849 -2.467279,1.02094 -1.106022,0.68063 -3.573301,1.36126 0.08508,3.31806 0.08508,8.25262 -0.59555,11.74084 -0.255236,1.70158 -0.680629,3.65838 -1.1911,5.10472 -2.297122,0.34031 -7.231681,0.51047 -7.401838,0.51047 -0.680629,-1.36126 -1.361258,-3.23299 -1.956808,-4.93456 -1.1911,-3.40314 -1.871729,-8.25262 -2.212043,-11.65576 -2.637437,-0.34032 -1.276179,0 -3.743459,-0.68063 -1.446336,3.06283 -3.573301,7.40183 -5.700266,10.12435 -1.106021,1.36126 -2.212043,2.55236 -3.318065,3.65838 q -2.637436,-1.02094 -5.189794,-2.3822 l 11.060217,-20.16363 c 3.573301,1.61649 7.571995,2.55236 11.570689,2.55236 7.657074,0 14.888755,-3.14791 20.248706,-8.848158 5.44503,-5.700266 8.422781,-13.357339 8.422781,-21.439806 0,-8.082467 -2.977751,-15.654462 -8.422781,-21.354728 q -1.531415,-1.701572 -3.318065,-3.062829 l 10.975139,-19.99347 c 1.616493,1.106022 3.147908,2.297122 4.679323,3.658379 -0.340315,1.701572 -0.680629,3.232987 -1.361258,5.104716 -1.106022,3.403144 -3.573301,7.571995 -5.359951,10.379589 1.871729,2.041886 1.020943,0.935864 2.467279,3.062829 2.977751,-1.361257 7.23168,-3.232986 10.549745,-3.828536 1.78665,-0.425393 3.488222,-0.595551 5.104716,-0.595551 q 1.78665,3.232987 3.062831,6.721209 c -1.020945,1.361258 -2.212045,2.722516 -3.573303,4.083773 -2.467279,2.382201 -6.551052,4.84948 -9.358645,6.465973 0.765707,2.722515 0.425392,1.276179 0.850785,3.913616 3.147909,0.255236 7.742153,0.765707 10.975139,1.78665 1.701574,0.59555 3.403144,1.361258 4.849484,2.126965 0,0.59555 0,5.44503 -0.17016,7.401838 -1.53142,0.680629 -3.31807,1.276179 -5.189795,1.786651 -3.232987,0.935864 -7.91231,1.020943 -11.230375,1.106021 z"
       id="path20-9"
       style="fill:#ffffff;stroke-width:0.850786" />
    <path
       class="a"
       d="m 146.25011,44.266873 h -8.25263 v 5.530109 h 9.69896 v 3.488222 H 133.65847 V 32.440948 h 14.03797 v 3.488222 h -9.69896 v 4.934559 h 8.25263 z"
       id="path22-1"
       style="fill:#ffffff;stroke-width:0.850786" />
    <path
       class="a"
       d="m 159.0119,51.668711 q -1.53142,1.871729 -4.25393,1.871729 -2.46728,0 -3.82854,-1.361258 -1.27618,-1.446336 -1.27618,-4.25393 V 37.800899 h 4.08377 v 10.039275 q 0,2.382201 2.21205,2.382201 2.04188,0 2.89267,-1.446337 V 37.800899 h 4.16885 v 15.484305 h -3.91362 z"
       id="path24-2"
       style="fill:#ffffff;stroke-width:0.850786" />
    <path
       class="a"
       d="m 174.83651,41.714515 q -0.85078,-0.170157 -1.44633,-0.170157 -2.3822,0 -3.14791,1.616493 V 53.285204 H 166.1585 V 37.800899 h 3.91361 l 0.0851,1.87173 c 0.85079,-1.446337 2.04189,-2.126965 3.48822,-2.126965 q 0.68063,0 1.27618,0.170157 z"
       id="path26-7"
       style="fill:#ffffff;stroke-width:0.850786" />
    <path
       fill-rule="evenodd"
       class="a"
       d="m 175.6873,45.372895 q 0,-2.297123 0.85079,-4.083773 0.93586,-1.786651 2.55235,-2.807594 c 1.10603,-0.59555 2.3822,-0.935864 3.91362,-0.935864 2.04189,0 3.82854,0.59555 5.10471,1.871729 1.36126,1.276179 2.04189,3.062829 2.21205,5.189794 v 1.020943 q 0,3.573301 -1.95681,5.700266 c -1.36126,1.446336 -3.14791,2.212044 -5.35995,2.212044 q -3.40314,0 -5.35995,-2.212044 c -1.36126,-1.361257 -2.04189,-3.318065 -2.04189,-5.785344 v -0.170157 z m 4.16885,0.340314 q 0,2.212043 0.85079,3.318065 c 0.51047,0.850786 1.36125,1.191101 2.3822,1.191101 q 1.44633,0 2.3822,-1.106022 0.85078,-1.191101 0.85078,-3.65838 0,-2.212043 -0.85078,-3.403144 -0.85079,-1.1911 -2.3822,-1.1911 -1.53142,0 -2.3822,1.1911 -0.85079,1.191101 -0.85079,3.65838 z"
       id="path28-0"
       style="fill:#ffffff;stroke-width:0.850786" />
    <path
       fill-rule="evenodd"
       class="a"
       d="m 206.91114,45.713209 q 0,3.573301 -1.70157,5.700266 c -1.10602,1.446336 -2.55236,2.126965 -4.33901,2.126965 q -2.3822,0 -3.82853,-1.616494 v 7.31676 h -4.16885 V 37.800899 h 3.82853 l 0.17016,1.531415 q 1.53142,-1.78665 3.91362,-1.78665 2.89267,0 4.50916,2.126965 1.53142,2.041886 1.61649,5.785344 z m -4.16885,-0.340314 c 0,-1.446337 -0.25523,-2.46728 -0.7657,-3.318066 -0.51048,-0.765707 -1.27618,-1.106021 -2.21205,-1.106021 -1.36125,0 -2.21204,0.425393 -2.72251,1.446336 v 6.295816 q 0.7657,1.531415 2.72251,1.531415 c 1.95681,0 2.97775,-1.616494 2.97775,-4.84948 z"
       id="path30-9"
       style="fill:#ffffff;stroke-width:0.850786" />
    <path
       fill-rule="evenodd"
       class="a"
       d="m 216.6101,53.54044 q -3.40314,0 -5.61518,-2.041887 c -1.36126,-1.361257 -2.12697,-3.232986 -2.12697,-5.530108 v -0.425393 q 0,-2.297122 0.93587,-4.168851 0.85078,-1.87173 2.55235,-2.807594 1.6165,-1.020943 3.74346,-1.020943 3.23299,0 5.01964,2.041886 1.87173,1.956808 1.87173,5.615187 v 1.701572 h -9.86912 c 0.0851,1.020943 0.51047,1.786651 1.1911,2.46728 q 1.02095,0.850786 2.55236,0.850786 2.3822,0 3.74346,-1.701572 l 2.04188,2.297122 c -0.59555,0.850786 -1.44633,1.531414 -2.46727,2.041886 -1.1911,0.425393 -2.29713,0.680629 -3.57331,0.680629 z m -0.51047,-12.676711 q -1.1911,0 -1.9568,0.850786 -0.85079,0.850786 -1.02095,2.382201 h 5.78535 v -0.340315 q -0.0851,-1.361257 -0.76571,-2.126965 -0.76571,-0.765707 -2.04189,-0.765707 z"
       id="path32-3"
       style="fill:#ffffff;stroke-width:0.850786" />
    <path
       fill-rule="evenodd"
       class="a"
       d="m 234.30645,53.285204 c -0.17015,-0.340314 -0.34031,-0.850786 -0.42539,-1.446336 q -1.53142,1.701572 -3.91362,1.701572 -2.29712,0 -3.82853,-1.361258 -1.44634,-1.276179 -1.44634,-3.318065 0,-2.382201 1.78665,-3.743458 1.87173,-1.276179 5.35995,-1.361258 h 1.87173 v -0.850786 q 0,-1.106021 -0.51047,-1.701572 -0.59555,-0.59555 -1.78665,-0.59555 -1.02094,0 -1.61649,0.510472 -0.59555,0.425393 -0.59555,1.361257 h -4.16885 q 0,-1.361257 0.85078,-2.552358 0.76571,-1.106021 2.29712,-1.701572 c 1.02095,-0.425393 2.21205,-0.680628 3.40315,-0.680628 q 2.89267,0 4.59424,1.446336 c 1.10602,0.935864 1.70157,2.297122 1.70157,3.998694 v 6.721209 c 0,1.446336 0.17016,2.552358 0.59555,3.318065 v 0.255236 z m -3.40314,-2.892672 c 0.59555,0 1.1911,-0.08508 1.70157,-0.425393 q 0.76571,-0.425393 1.10602,-1.106022 V 46.22368 h -1.53141 q -3.14791,0 -3.31807,2.126965 v 0.255236 q 0,0.765708 0.59555,1.276179 0.4254,0.510472 1.44634,0.510472 z"
       id="path34-6"
       style="fill:#ffffff;stroke-width:0.850786" />
    <path
       class="a"
       d="m 244.8562,37.800899 0.0851,1.786651 q 1.70157,-2.041886 4.50916,-2.041886 c 1.6165,0 2.8076,0.425393 3.65838,1.446336 0.76571,0.935864 1.1911,2.382201 1.1911,4.25393 v 10.039274 h -4.16885 v -9.869117 q 0.0851,-1.361258 -0.51047,-1.956808 -0.59555,-0.59555 -1.95681,-0.59555 c -1.1911,0 -1.95681,0.510472 -2.63743,1.446336 v 10.89006 H 240.9426 V 37.800899 Z"
       id="path36-0"
       style="fill:#ffffff;stroke-width:0.850786" />
    <path
       class="a"
       d="m 146.25011,76.171346 h -8.25263 v 5.615188 h 9.69896 v 3.403143 H 133.65847 V 64.4305 h 14.03797 v 3.488222 h -9.69896 v 4.934559 h 8.25263 z"
       id="path38-6"
       style="fill:#ffffff;stroke-width:0.850786" />
    <path
       class="a"
       d="m 153.73702,69.790452 0.17016,1.78665 q 1.61649,-2.126965 4.42409,-2.126965 c 1.61649,0 2.89267,0.510472 3.65838,1.446336 0.85078,1.020943 1.1911,2.46728 1.27617,4.339009 v 9.954195 h -4.16885 V 75.32056 q 0,-1.276179 -0.59555,-1.871729 -0.59555,-0.59555 -1.87173,-0.59555 c -1.1911,0 -2.04188,0.425393 -2.63743,1.446336 v 10.89006 h -4.16885 V 69.790452 Z"
       id="path40-2"
       style="fill:#ffffff;stroke-width:0.850786" />
    <path
       class="a"
       d="m 172.19908,80.17004 2.89267,-10.379588 h 4.33901 l -5.27487,15.399225 h -3.9987 L 164.9674,69.790452 h 4.33901 z"
       id="path42-6"
       style="fill:#ffffff;stroke-width:0.850786" />
    <path
       class="a"
       d="m 181.21741,65.791758 c 0,-0.680629 0.17016,-1.106022 0.59555,-1.531415 0.42539,-0.425393 0.93586,-0.59555 1.70157,-0.59555 q 1.02094,0 1.70157,0.59555 0.59555,0.59555 0.59555,1.531415 0,0.935864 -0.59555,1.531414 -0.68063,0.59555 -1.70157,0.59555 -1.02094,0 -1.70157,-0.59555 -0.59555,-0.59555 -0.59555,-1.531414 z m 0.25523,3.998694 h 4.08378 v 15.399225 h -4.08378 z"
       id="path44-1"
       style="fill:#ffffff;stroke-width:0.850786" />
    <path
       class="a"
       d="m 197.72266,73.618988 q -0.85079,-0.08508 -1.53142,-0.08508 -2.29712,0 -3.06283,1.616493 v 10.039274 h -4.16885 V 69.790452 h 3.91362 l 0.17015,1.871729 c 0.76571,-1.446336 1.95681,-2.212044 3.40315,-2.212044 q 0.68063,0 1.27618,0.255236 z"
       id="path46-8"
       style="fill:#ffffff;stroke-width:0.850786" />
    <path
       fill-rule="evenodd"
       class="a"
       d="m 198.57344,77.362447 q 0,-2.297122 0.85079,-4.083773 0.93586,-1.871729 2.55236,-2.807594 c 1.10602,-0.680628 2.3822,-1.020943 3.91361,-1.020943 2.04189,0 3.82854,0.680629 5.10472,1.956808 1.36125,1.276179 2.04188,2.977751 2.21204,5.189794 v 1.020943 q 0,3.573301 -1.95681,5.700266 c -1.36125,1.446336 -3.1479,2.126965 -5.35995,2.126965 q -3.40314,0 -5.35995,-2.126965 c -1.36126,-1.446336 -2.04189,-3.403143 -2.04189,-5.785344 v -0.170157 z m 4.16885,0.255235 q 0,2.212044 0.85079,3.403144 c 0.51047,0.765708 1.36126,1.191101 2.3822,1.191101 q 1.44634,0 2.3822,-1.106022 0.85079,-1.1911 0.76571,-3.743458 0.0851,-2.126965 -0.76571,-3.318066 -0.93586,-1.1911 -2.46728,-1.1911 -1.44633,0 -2.29712,1.1911 -0.85079,1.106022 -0.85079,3.573301 z"
       id="path48-7"
       style="fill:#ffffff;stroke-width:0.850786" />
    <path
       class="a"
       d="m 219.58786,69.790452 0.17015,1.78665 q 1.6165,-2.126965 4.42409,-2.126965 c 1.61649,0 2.89267,0.510472 3.65838,1.446336 0.85079,1.020943 1.1911,2.46728 1.27618,4.339009 v 9.954195 h -4.16885 V 75.32056 q 0,-1.276179 -0.59555,-1.871729 -0.59555,-0.59555 -1.87173,-0.59555 c -1.1911,0 -2.04189,0.425393 -2.63744,1.446336 v 10.89006 h -4.16885 V 69.790452 Z"
       id="path50-9"
       style="fill:#ffffff;stroke-width:0.850786" />
    <path
       class="a"
       d="m 236.0931,69.790452 0.17016,1.701572 q 1.61649,-2.041887 4.42409,-2.041887 2.97775,0 4.08377,2.382201 1.61649,-2.382201 4.67932,-2.382201 2.55236,0 3.74346,1.531415 1.27618,1.446336 1.27618,4.424087 v 9.784038 h -4.16885 v -9.784038 q 0,-1.361258 -0.51047,-1.956808 -0.51047,-0.59555 -1.78665,-0.59555 -1.87173,0 -2.63744,1.786651 v 10.549745 h -4.08377 v -9.784038 q 0,-1.361258 -0.59555,-1.956808 -0.51047,-0.59555 -1.78665,-0.59555 -1.78665,0 -2.55236,1.446336 v 10.89006 h -4.16885 V 69.790452 Z"
       id="path52-2"
       style="fill:#ffffff;stroke-width:0.850786" />
    <path
       fill-rule="evenodd"
       class="a"
       d="m 264.76459,85.529992 q -3.40314,0 -5.53011,-2.041886 c -1.44633,-1.446337 -2.12696,-3.318066 -2.12696,-5.615188 v -0.340314 q 0,-2.297122 0.85078,-4.168851 0.93587,-1.871729 2.63744,-2.892673 1.61649,-0.935864 3.74346,-0.935864 3.14791,0 5.01963,1.956808 1.78665,2.041886 1.78665,5.700265 v 1.701572 h -9.86911 c 0.17015,0.935865 0.59555,1.786651 1.27618,2.382201 q 0.93586,0.935865 2.55235,0.935865 2.38221,0 3.74346,-1.701572 l 2.04189,2.212043 c -0.68063,0.935865 -1.44634,1.616494 -2.55236,2.041886 -1.02094,0.510472 -2.29712,0.765708 -3.5733,0.765708 z M 264.3392,72.853281 q -1.27618,0 -2.04189,0.850786 c -0.51047,0.510472 -0.85079,1.361258 -0.93586,2.382201 h 5.70026 v -0.340315 q 0,-1.361257 -0.76571,-2.126965 -0.68062,-0.765707 -1.9568,-0.765707 z"
       id="path54-0"
       style="fill:#ffffff;stroke-width:0.850786" />
    <path
       class="a"
       d="m 277.35622,69.790452 0.0851,1.78665 q 1.70157,-2.126965 4.42409,-2.126965 c 1.61649,0 2.89267,0.510472 3.65838,1.446336 0.85078,1.020943 1.27618,2.46728 1.27618,4.339009 v 9.954195 H 282.6311 V 75.32056 q 0,-1.276179 -0.59556,-1.871729 -0.59555,-0.59555 -1.87172,-0.59555 c -1.1911,0 -2.04189,0.425393 -2.63744,1.446336 v 10.89006 h -4.16885 V 69.790452 Z"
       id="path56-2"
       style="fill:#ffffff;stroke-width:0.850786" />
    <path
       class="a"
       d="m 294.88241,65.961915 v 3.828537 h 2.72252 v 2.97775 h -2.72252 v 7.742153 q 0,0.850786 0.34032,1.276179 0.34031,0.340314 1.27618,0.340314 c 0.42539,0 0.85078,0 1.1911,-0.08508 v 3.147908 c -0.76571,0.255236 -1.6165,0.340315 -2.46728,0.340315 q -4.33901,0 -4.50917,-4.339009 V 72.85328 h -2.21204 v -3.062829 h 2.21204 v -3.828537 z"
       id="path58-3"
       style="fill:#ffffff;stroke-width:0.850786" />
    <path
       fill-rule="evenodd"
       class="a"
       d="m 145.4844,112.92528 h -7.48692 l -1.44633,4.25393 h -4.59425 l 7.74215,-20.759158 h 3.9987 l 7.82723,20.759158 h -4.59425 z m -6.3809,-3.48822 h 5.1898 l -2.63744,-7.74215 z"
       id="path60-7"
       style="fill:#ffffff;stroke-width:0.850786" />
    <path
       fill-rule="evenodd"
       class="a"
       d="m 152.54592,109.35198 q 0,-3.5733 1.70157,-5.70026 c 1.10603,-1.44634 2.72252,-2.21205 4.59425,-2.21205 q 2.55236,0 3.99869,1.78665 l 0.17016,-1.44633 h 3.74346 v 14.88875 q 0,2.04189 -0.93587,3.5733 -0.93586,1.44634 -2.63743,2.21205 c -1.10603,0.59555 -2.3822,0.85078 -3.91362,0.85078 -1.1911,0 -2.21204,-0.25523 -3.31806,-0.68063 q -1.6165,-0.68063 -2.46728,-1.78665 l 1.87173,-2.46728 q 1.53141,1.70157 3.74345,1.70157 c 1.10603,0 1.95681,-0.25523 2.55236,-0.85078 q 0.93587,-0.85079 0.93587,-2.55236 v -0.76571 c -1.02095,1.10603 -2.21205,1.6165 -3.82854,1.6165 -1.87173,0 -3.31807,-0.76571 -4.50917,-2.21205 q -1.70157,-2.12696 -1.70157,-5.78534 z m 4.16885,0.25524 c 0,1.44633 0.25524,2.55236 0.85079,3.31806 0.51047,0.76571 1.27618,1.1911 2.29712,1.1911 q 1.95681,0 2.72252,-1.36125 v -6.55106 q -0.85079,-1.36125 -2.72252,-1.44633 -1.44634,0 -2.29712,1.27618 c -0.59555,0.85078 -0.85079,2.04188 -0.85079,3.5733 z"
       id="path62-5"
       style="fill:#ffffff;stroke-width:0.850786" />
    <path
       fill-rule="evenodd"
       class="a"
       d="m 177.04856,117.51953 q -3.40315,0 -5.53011,-2.12697 c -1.44634,-1.36126 -2.21204,-3.23298 -2.21204,-5.53011 v -0.42539 q 0,-2.29712 0.93586,-4.16885 0.93586,-1.78665 2.55236,-2.80759 1.70157,-1.02095 3.82853,-1.02095 3.14791,0 5.01964,2.04189 1.78665,1.95681 1.78665,5.61519 v 1.70157 h -9.86911 c 0.17015,1.02094 0.59555,1.87173 1.1911,2.46728 q 1.02094,0.93586 2.63743,0.93586 2.3822,0 3.74346,-1.78665 l 2.04189,2.29712 c -0.68063,0.85079 -1.44634,1.53142 -2.55236,2.04189 -1.02094,0.51047 -2.29712,0.76571 -3.5733,0.76571 z m -0.4254,-12.76179 q -1.27617,0 -2.04188,0.85078 -0.76571,0.85079 -0.93587,2.3822 h 5.78535 v -0.34031 q -0.0851,-1.36126 -0.76571,-2.12697 -0.76571,-0.7657 -2.04189,-0.7657 z"
       id="path64-9"
       style="fill:#ffffff;stroke-width:0.850786" />
    <path
       class="a"
       d="m 189.64019,101.77999 0.0851,1.78665 q 1.70157,-2.12697 4.42409,-2.12697 c 1.70157,0 2.89267,0.51047 3.74345,1.44634 0.76571,0.93586 1.1911,2.3822 1.1911,4.33901 v 9.95419 h -4.16885 v -9.86911 q 0,-1.36126 -0.51047,-1.87173 -0.59555,-0.59555 -1.95681,-0.68063 c -1.1911,0 -2.04188,0.51047 -2.63743,1.53141 v 10.89006 h -4.08378 v -15.4843 h 3.91362 z"
       id="path66-2"
       style="fill:#ffffff;stroke-width:0.850786" />
    <path
       class="a"
       d="m 208.6978,114.11638 q 1.10602,0 1.87172,-0.59555 0.68063,-0.68063 0.76571,-1.70157 h 3.82854 c 0,1.10602 -0.25524,2.04189 -0.85079,2.89267 q -0.85078,1.27618 -2.29712,2.04189 -1.44634,0.68063 -3.23299,0.68063 -3.31806,0 -5.18979,-2.12697 -1.95681,-2.04188 -1.95681,-5.78534 v -0.25524 q 0,-3.5733 1.95681,-5.70026 1.87173,-2.12697 5.18979,-2.12697 2.89268,0 4.67933,1.6165 c 1.1911,1.10602 1.78665,2.55235 1.78665,4.42408 h -3.82854 c -0.0851,-0.85078 -0.34031,-1.44633 -0.76571,-1.95681 q -0.7657,-0.7657 -1.9568,-0.7657 -1.44634,0 -2.12697,1.02094 -0.76571,1.10602 -0.76571,3.48822 v 0.34032 q 0,2.46728 0.76571,3.48822 c 0.42539,0.68063 1.10602,1.02094 2.12697,1.02094 z"
       id="path68-2"
       style="fill:#ffffff;stroke-width:0.850786" />
    <path
       class="a"
       d="m 223.33131,111.30879 2.89268,-9.61388 h 4.42408 l -6.21073,17.8665 -0.34032,0.85079 c -0.93586,1.95681 -2.46728,2.97775 -4.59424,2.97775 q -0.93587,0 -1.87173,-0.25524 v -3.1479 h 0.68063 q 1.10602,0 1.70157,-0.34032 0.59555,-0.34031 0.93586,-1.1911 l 0.51047,-1.27618 -5.44503,-15.4843 h 4.42409 z"
       id="path70-8"
       style="fill:#ffffff;stroke-width:0.850786" />
    <path
       d="M 2.3513299,-4.1020609 V 10.025902 H 0.47859854 V -4.1020609 Z"
       style="font-size:19.8723px;line-height:1.25;font-family:Roboto;-inkscape-font-specification:Roboto;fill:#ffffff;stroke-width:0.496805"
       id="path912" />
    <path
       d="M 6.3393745,-4.1020609 H 8.1538862 L 12.782347,7.4157219 17.401104,-4.1020609 h 1.824215 L 13.480982,10.025902 h -1.416678 z m -0.5918995,0 H 7.3485147 L 7.610503,4.5144438 V 10.025902 H 5.747475 Z m 12.459,0 h 1.60104 V 10.025902 H 17.944487 V 4.5144438 Z"
       style="font-size:19.8723px;line-height:1.25;font-family:Roboto;-inkscape-font-specification:Roboto;fill:#ffffff;stroke-width:0.496805"
       id="path914" />
    <path
       d="M 28.307581,4.485334 H 24.533008 V 2.9619204 h 3.774573 q 1.096469,0 1.775698,-0.3493177 0.679229,-0.3493178 0.989734,-0.9703271 0.320208,-0.6210094 0.320208,-1.41667761 0,-0.72774533 -0.320208,-1.36816119 Q 30.762508,-1.7829791 30.083279,-2.17111 29.40405,-2.5689441 28.307581,-2.5689441 H 24.969655 V 10.025902 H 23.096924 V -4.1020609 h 5.210657 q 1.601039,0 2.707212,0.5530864 1.106173,0.5530865 1.678666,1.5331169 0.572493,0.9703271 0.572493,2.22204905 0,1.35845795 -0.572493,2.31908175 -0.572493,0.9606239 -1.678666,1.465194 Q 29.90862,4.485334 28.307581,4.485334 Z"
       style="font-size:19.8723px;line-height:1.25;font-family:Roboto;-inkscape-font-specification:Roboto;fill:#ffffff;stroke-width:0.496805"
       id="path916" />
    <path
       d="M 44.201539,8.5024882 V 10.025902 H 37.137558 V 8.5024882 Z M 37.506282,-4.1020609 V 10.025902 H 35.633551 V -4.1020609 Z"
       style="font-size:19.8723px;line-height:1.25;font-family:Roboto;-inkscape-font-specification:Roboto;fill:#ffffff;stroke-width:0.496805"
       id="path918" />
    <path
       d="M 55.311786,8.5024882 V 10.025902 H 47.830564 V 8.5024882 Z M 48.208991,-4.1020609 V 10.025902 H 46.33626 V -4.1020609 Z m 6.113061,6.0742477 V 3.4956004 H 47.830564 V 1.9721868 Z m 0.892701,-6.0742477 v 1.5331168 h -7.384189 v -1.5331168 z"
       style="font-size:19.8723px;line-height:1.25;font-family:Roboto;-inkscape-font-specification:Roboto;fill:#ffffff;stroke-width:0.496805"
       id="path920" />
    <path
       d="m 58.222765,-4.1020609 h 1.814512 l 4.62846,11.5177828 4.618757,-11.5177828 h 1.824215 L 65.364372,10.025902 h -1.416677 z m -0.5919,0 h 1.60104 l 0.261988,8.6165047 v 5.5114582 h -1.863028 z m 12.459,0 h 1.60104 V 10.025902 H 69.827877 V 4.5144438 Z"
       style="font-size:19.8723px;line-height:1.25;font-family:Roboto;-inkscape-font-specification:Roboto;fill:#ffffff;stroke-width:0.496805"
       id="path922" />
    <path
       d="M 83.955836,8.5024882 V 10.025902 H 76.474614 V 8.5024882 Z M 76.853042,-4.1020609 V 10.025902 H 74.980311 V -4.1020609 Z m 6.113061,6.0742477 V 3.4956004 H 76.474614 V 1.9721868 Z m 0.892701,-6.0742477 v 1.5331168 h -7.38419 v -1.5331168 z"
       style="font-size:19.8723px;line-height:1.25;font-family:Roboto;-inkscape-font-specification:Roboto;fill:#ffffff;stroke-width:0.496805"
       id="path924" />
    <path
       d="M 97.142583,-4.1020609 V 10.025902 H 95.260149 L 88.147651,-0.87087164 V 10.025902 H 86.27492 V -4.1020609 h 1.872731 L 95.289259,6.8238223 V -4.1020609 Z"
       style="font-size:19.8723px;line-height:1.25;font-family:Roboto;-inkscape-font-specification:Roboto;fill:#ffffff;stroke-width:0.496805"
       id="path926" />
    <path
       d="M 105.39037,-4.1020609 V 10.025902 h -1.84362 V -4.1020609 Z m 4.54113,0 v 1.5331168 H 99.015319 v -1.5331168 z"
       style="font-size:19.8723px;line-height:1.25;font-family:Roboto;-inkscape-font-specification:Roboto;fill:#ffffff;stroke-width:0.496805"
       id="path928" />
    <path
       d="M 121.00293,8.5024882 V 10.025902 H 113.5217 V 8.5024882 Z m -7.1028,-12.6045491 V 10.025902 H 112.0274 V -4.1020609 Z m 6.11306,6.0742477 V 3.4956004 H 113.5217 V 1.9721868 Z m 0.8927,-6.0742477 v 1.5331168 h -7.38419 v -1.5331168 z"
       style="font-size:19.8723px;line-height:1.25;font-family:Roboto;-inkscape-font-specification:Roboto;fill:#ffffff;stroke-width:0.496805"
       id="path930" />
    <path
       d="m 127.1451,10.025902 h -2.9498 l 0.0194,-1.5234138 h 2.93039 q 1.51371,0 2.52285,-0.6307126 1.00914,-0.6404159 1.51371,-1.7854019 0.51427,-1.1546892 0.51427,-2.6975093 V 2.5252732 q 0,-1.2129088 -0.2911,-2.15412614 -0.29109,-0.95092057 -0.85388,-1.60103976 -0.56279,-0.6598224 -1.37787,-0.9994369 -0.80537,-0.3396145 -1.85332,-0.3396145 h -3.18268 v -1.5331168 h 3.18268 q 1.38756,0 2.53255,0.465757 1.14499,0.4560537 1.96976,1.3293481 0.83449,0.8635912 1.28084,2.09590659 0.44635,1.22261221 0.44635,2.75572901 v 0.8441846 q 0,1.5331168 -0.44635,2.7654322 -0.44635,1.2226122 -1.29054,2.0862033 -0.83448,0.8635911 -2.01828,1.3293482 -1.1741,0.4560539 -2.64899,0.4560539 z M 125.19474,-4.1020609 V 10.025902 h -1.87273 V -4.1020609 Z"
       style="font-size:19.8723px;line-height:1.25;font-family:Roboto;-inkscape-font-specification:Roboto;fill:#ffffff;stroke-width:0.496805"
       id="path932" />
    <path
       d="m 146.32847,3.4179742 h -3.5805 l -0.0194,-1.504007 h 3.25059 q 0.80538,0 1.40698,-0.2716916 0.6016,-0.2716916 0.93151,-0.77626172 0.33962,-0.51427336 0.33962,-1.22261215 0,-0.77626173 -0.3008,-1.26142523 -0.2911,-0.4948668 -0.90241,-0.7180421 -0.6016,-0.2328785 -1.53311,-0.2328785 h -2.75573 V 10.025902 h -1.87273 V -4.1020609 h 4.62846 q 1.08676,0 1.94065,0.2231752 0.85389,0.213472 1.44579,0.679229 0.6016,0.4560537 0.9121,1.1643925 0.31051,0.7083388 0.31051,1.69807247 0,0.8732944 -0.44635,1.58163323 -0.44635,0.6986355 -1.24202,1.1449859 -0.78597,0.4463505 -1.84362,0.572493 z m -0.0873,6.6079278 h -4.23062 l 1.05765,-1.5234138 h 3.17297 q 0.8927,0 1.51371,-0.3105046 0.63072,-0.3105047 0.96063,-0.8732944 0.32991,-0.572493 0.32991,-1.3487547 0,-0.785965 -0.2814,-1.358458 -0.28139,-0.572493 -0.88299,-0.8829976 -0.60161,-0.3105047 -1.55253,-0.3105047 h -2.6684 l 0.0194,-1.504007 h 3.64843 l 0.39783,0.5433831 q 1.01885,0.08733 1.72719,0.5821963 0.70833,0.4851636 1.07706,1.2420187 0.37843,0.7568552 0.37843,1.6689626 0,1.3196449 -0.5822,2.2317524 -0.57249,0.9024042 -1.62045,1.3778645 -1.04795,0.4657572 -2.46463,0.4657572 z"
       style="font-size:19.8723px;line-height:1.25;font-family:Roboto;-inkscape-font-specification:Roboto;fill:#ffffff;stroke-width:0.496805"
       id="path934" />
    <path
       d="m 153.79028,-4.1020609 3.66784,7.0930912 3.67754,-7.0930912 h 2.12501 l -4.87104,8.8493832 V 10.025902 H 156.5169 V 4.7473223 l -4.87104,-8.8493832 z"
       style="font-size:19.8723px;line-height:1.25;font-family:Roboto;-inkscape-font-specification:Roboto;fill:#ffffff;stroke-width:0.496805"
       id="path936" />
  </g>
</svg>
