<svg width="292" height="70" viewBox="0 0 292 70" fill="none" xmlns="http://www.w3.org/2000/svg">
<mask id="mask0_1022_916" style="mask-type:luminance" maskUnits="userSpaceOnUse" x="107" y="2" width="62" height="64">
<path d="M107.87 33.7218C107.87 51.1479 121.845 65.2506 139.101 65.2506C143.872 65.2506 148.602 64.1428 152.905 61.9699C152.905 61.9699 152.99 61.9273 152.948 61.8421C152.948 61.7995 152.905 61.7995 152.862 61.7995C149.582 63.1203 146.088 63.802 142.552 63.7594C126.872 63.7594 114.133 50.8496 114.133 34.9574C114.133 19.0652 126.872 6.15539 142.552 6.15539C153.374 6.15539 163.258 12.3333 167.988 22.0476C167.988 22.0476 168.03 22.1328 168.116 22.0902C168.158 22.0902 168.158 22.0476 168.158 22.005C163.471 10.0326 151.968 2.19298 139.143 2.15038C121.845 2.19298 107.87 16.3383 107.87 33.7218Z" fill="white"/>
</mask>
<g mask="url(#mask0_1022_916)">
<path d="M168.158 2.19301H107.87V65.2506H168.158V2.19301Z" fill="url(#paint0_linear_1022_916)"/>
</g>
<path d="M227.552 39.8571C226.998 38.4511 225.89 37.3434 224.527 36.7043C223.845 36.406 223.121 36.2356 222.354 36.2356C221.587 36.2356 220.82 36.406 220.138 36.7469C219.456 37.0451 218.86 37.5138 218.349 38.0251C218.093 38.3233 217.837 38.6215 217.624 38.9198V39.0476C217.624 42.9248 220.777 46.0777 224.654 46.0777C225.805 46.0777 226.955 45.7794 227.978 45.2256V42.0301C227.978 41.3484 227.85 40.5814 227.552 39.8571Z" fill="#FFCB2B"/>
<mask id="mask1_1022_916" style="mask-type:luminance" maskUnits="userSpaceOnUse" x="135" y="33" width="22" height="22">
<path d="M143.063 51.1478C142.168 50.7644 141.316 50.2105 140.634 49.4862C139.91 48.7619 139.356 47.9098 138.973 47.015C138.589 46.0777 138.376 45.0551 138.376 43.99C138.376 42.9674 138.589 41.9022 138.973 40.9649C139.356 40.0276 139.91 39.1754 140.634 38.4937C142.807 36.2782 146.088 35.5965 148.943 36.8321C149.837 37.2155 150.69 37.7694 151.371 38.4937C153.544 40.7945 154.141 44.1178 152.99 47.015C152.607 47.9524 152.053 48.7619 151.371 49.4862C150.69 50.1679 149.837 50.7644 148.943 51.1478C148.005 51.5739 147.025 51.7869 146.003 51.7443C144.98 51.7443 144 51.5313 143.063 51.1478ZM142.04 34.3609C140.847 34.8722 139.74 35.6391 138.802 36.5764C135.862 39.6015 134.968 44.1178 136.587 48.0376C137.098 49.2732 137.865 50.3809 138.802 51.3609C139.74 52.2982 140.805 53.0651 142.04 53.5764C144.554 54.6416 147.409 54.6416 149.965 53.5764C151.158 53.0651 152.266 52.2982 153.203 51.3609C154.141 50.4235 154.908 49.2732 155.419 48.0376C156.484 45.4386 156.484 42.5413 155.419 39.9423C154.908 38.7067 154.141 37.5564 153.203 36.619C152.266 35.6817 151.201 34.9148 149.965 34.4035C147.409 33.2957 144.554 33.2957 142.04 34.3609Z" fill="white"/>
</mask>
<g mask="url(#mask1_1022_916)">
<path d="M156.186 33.5513H135.82V54.4285H156.186V33.5513Z" fill="url(#paint1_linear_1022_916)"/>
</g>
<mask id="mask2_1022_916" style="mask-type:luminance" maskUnits="userSpaceOnUse" x="158" y="33" width="21" height="29">
<path d="M165.261 51.1905C162.406 49.9549 160.574 47.1428 160.617 44.0326C160.617 43.01 160.83 41.9449 161.213 41.0075C161.98 39.1754 163.471 37.6842 165.304 36.8747C166.241 36.4486 167.221 36.2356 168.243 36.2782C169.266 36.2782 170.246 36.4912 171.183 36.8747C172.078 37.2581 172.93 37.8546 173.612 38.5363C174.294 39.2606 174.847 40.0702 175.231 41.0075C175.614 41.9875 175.827 43.01 175.827 44.0326C175.827 45.0551 175.657 46.0777 175.231 47.0576C174.847 47.995 174.294 48.8045 173.612 49.5288C172.93 50.2105 172.078 50.807 171.183 51.1905C170.246 51.5739 169.266 51.787 168.243 51.787C167.178 51.787 166.198 51.5739 165.261 51.1905ZM164.238 34.4035C163.045 34.9148 161.938 35.6817 161 36.619C160.063 37.599 159.339 38.7068 158.785 39.9423C158.274 41.2205 158.018 42.6266 158.018 44.0326V61.1178H160.617V50.4235C161.426 51.6591 162.534 52.6817 163.898 53.3208C165.218 54.0451 166.71 54.4712 168.243 54.4712C169.607 54.4712 170.928 54.1729 172.206 53.619C173.399 53.1078 174.507 52.3408 175.444 51.4035C176.381 50.4662 177.148 49.3158 177.659 48.0802C178.725 45.4812 178.725 42.584 177.659 39.985C177.148 38.7494 176.381 37.599 175.444 36.6616C174.507 35.7243 173.441 34.9574 172.206 34.4461C169.607 33.2957 166.752 33.2957 164.238 34.4035Z" fill="white"/>
</mask>
<g mask="url(#mask2_1022_916)">
<path d="M178.384 33.5945H158.018V61.1609H178.384V33.5945Z" fill="url(#paint2_linear_1022_916)"/>
</g>
<mask id="mask3_1022_916" style="mask-type:luminance" maskUnits="userSpaceOnUse" x="179" y="33" width="22" height="22">
<path d="M184.732 38.4511C187.629 35.4687 192.401 35.4687 195.384 38.3659C195.426 38.4085 195.426 38.4085 195.469 38.4511C196.023 39.0476 196.534 39.7719 196.875 40.5388H183.284C183.667 39.7719 184.178 39.0902 184.732 38.4511ZM186.181 34.3609C184.945 34.8722 183.837 35.6391 182.9 36.5764C181.963 37.5564 181.238 38.6641 180.727 39.8997C179.662 42.4987 179.662 45.396 180.727 47.995C181.238 49.2306 181.963 50.3383 182.9 51.3183C183.837 52.2556 184.945 53.0225 186.181 53.5338C188.695 54.599 191.549 54.599 194.106 53.5338C195.299 52.9799 196.406 52.2556 197.344 51.3183C198.281 50.3383 199.005 49.2306 199.517 47.995L199.602 47.6967H196.747C196.406 48.3358 195.98 48.9323 195.469 49.4436C192.572 52.426 187.8 52.426 184.817 49.5288C184.775 49.4862 184.775 49.4862 184.732 49.4436C184.05 48.7193 183.497 47.8672 183.113 46.9724C182.559 45.7794 182.389 44.4586 182.559 43.1378H200.241C200.198 42.0301 199.9 40.9223 199.474 39.8571C198.963 38.6215 198.238 37.4712 197.301 36.5338C196.364 35.5965 195.256 34.8296 194.063 34.3183C191.549 33.2957 188.695 33.2957 186.181 34.3609Z" fill="white"/>
</mask>
<g mask="url(#mask3_1022_916)">
<path d="M200.241 33.5512H179.917V54.4284H200.241V33.5512Z" fill="url(#paint3_linear_1022_916)"/>
</g>
<mask id="mask4_1022_916" style="mask-type:luminance" maskUnits="userSpaceOnUse" x="202" y="34" width="11" height="20">
<path d="M208.421 35.2556C207.186 35.8095 206.078 36.5764 205.141 37.5138C204.97 37.6842 204.842 37.8972 204.757 38.1103V34.4887H202.201V53.4486H204.757V44.8847C204.757 43.8621 204.97 42.797 205.354 41.8596C205.737 40.9223 206.291 40.1128 207.015 39.3885C207.697 38.6641 208.507 38.1103 209.444 37.7268C210.381 37.3007 211.361 37.0877 212.384 37.1303V34.4887C210.978 34.4461 209.614 34.7017 208.421 35.2556Z" fill="white"/>
</mask>
<g mask="url(#mask4_1022_916)">
<path d="M212.384 34.4461H202.201V53.4912H212.384V34.4461Z" fill="url(#paint4_linear_1022_916)"/>
</g>
<mask id="mask5_1022_916" style="mask-type:luminance" maskUnits="userSpaceOnUse" x="213" y="33" width="18" height="21">
<path d="M220.607 33.7644C220.053 33.8922 219.499 34.0627 218.988 34.3183C218.476 34.5313 218.008 34.8296 217.582 35.1704C217.198 35.4687 216.857 35.8521 216.559 36.2782V34.5313H213.96V53.4912H216.559V42.1153C216.559 41.3484 216.73 40.6241 217.028 39.9424C217.326 39.2606 217.752 38.6215 218.263 38.0677C218.775 37.5138 219.414 37.0877 220.053 36.7895C220.735 36.4486 221.502 36.2782 222.268 36.2782C222.993 36.2782 223.76 36.4486 224.441 36.7469C226.572 37.6842 227.935 39.8145 227.935 42.1579V53.5338H230.619L230.534 42.1579C230.534 41.0075 230.321 39.8997 229.895 38.8346C229.469 37.812 228.83 36.9173 228.106 36.1078C227.339 35.3408 226.444 34.7017 225.464 34.2757C224.441 33.807 223.376 33.594 222.268 33.594C221.757 33.5514 221.203 33.594 220.607 33.7644Z" fill="white"/>
</mask>
<g mask="url(#mask5_1022_916)">
<path d="M230.705 33.5513H214.045V53.4912H230.705V33.5513Z" fill="url(#paint5_linear_1022_916)"/>
</g>
<mask id="mask6_1022_916" style="mask-type:luminance" maskUnits="userSpaceOnUse" x="233" y="26" width="4" height="28">
<path d="M233.304 53.4912H235.903V34.5313H233.304V53.4912ZM233.559 27.416C232.92 28.0125 232.92 29.0351 233.517 29.6742C233.815 29.9724 234.241 30.1428 234.667 30.1428C235.093 30.1428 235.476 29.9724 235.775 29.6742C236.371 29.0351 236.371 28.0551 235.775 27.416C235.476 27.1178 235.093 26.9474 234.667 26.9474C234.241 26.9474 233.857 27.1178 233.559 27.416Z" fill="white"/>
</mask>
<g mask="url(#mask6_1022_916)">
<path d="M236.201 26.9474H233.091V53.4912H236.201V26.9474Z" fill="url(#paint6_linear_1022_916)"/>
</g>
<mask id="mask7_1022_916" style="mask-type:luminance" maskUnits="userSpaceOnUse" x="237" y="33" width="21" height="22">
<path d="M244.168 34.3609C242.975 34.9148 241.867 35.6391 240.93 36.5764C237.99 39.6015 237.096 44.1178 238.715 48.0376C239.226 49.2732 239.993 50.3809 240.93 51.3609C241.867 52.2982 242.975 53.0652 244.168 53.5764C249.281 55.7494 255.203 53.406 257.376 48.2932C257.419 48.208 257.461 48.1228 257.504 48.0376L257.632 47.7393H254.777C254.436 48.3784 254.01 48.9749 253.499 49.4862C252.817 50.1679 251.965 50.7644 251.07 51.1479C250.133 51.5739 249.153 51.787 248.131 51.7444C245.063 51.7017 242.294 49.8271 241.101 47.015C240.717 46.0777 240.504 45.0551 240.504 43.99C240.504 42.9674 240.717 41.9023 241.101 40.9649C241.484 40.0276 242.038 39.1754 242.762 38.4937C244.935 36.2782 248.216 35.5965 251.07 36.8321C251.965 37.2155 252.817 37.7694 253.499 38.4937C253.968 39.005 254.394 39.6015 254.735 40.198H257.632L257.504 39.9424C255.459 34.787 249.622 32.2306 244.466 34.2757C244.381 34.2757 244.253 34.3183 244.168 34.3609Z" fill="white"/>
</mask>
<g mask="url(#mask7_1022_916)">
<path d="M257.632 33.5514H237.99V54.4285H257.632V33.5514Z" fill="url(#paint7_linear_1022_916)"/>
</g>
<mask id="mask8_1022_916" style="mask-type:luminance" maskUnits="userSpaceOnUse" x="259" y="34" width="17" height="20">
<path d="M273.226 34.5313V44.9699C273.226 45.7368 273.055 46.5037 272.757 47.2281C272.459 47.9098 272.075 48.5489 271.522 49.0601C271.01 49.5714 270.371 49.9975 269.732 50.3383C268.326 50.9348 266.707 50.9348 265.301 50.3383C264.619 50.0401 264.023 49.614 263.512 49.0601C262.958 48.5489 262.574 47.9098 262.276 47.2281C261.978 46.5037 261.807 45.7368 261.807 44.9699V34.5313H259.123V44.9273C259.123 46.0777 259.336 47.1854 259.805 48.208C260.231 49.2306 260.827 50.1253 261.594 50.9348C262.361 51.7017 263.256 52.3408 264.236 52.7669C265.258 53.2356 266.324 53.4486 267.431 53.4486C268.539 53.4486 269.647 53.2356 270.669 52.7669C271.649 52.3408 272.544 51.7017 273.311 50.9348C274.078 50.1253 274.674 49.2306 275.101 48.208C275.527 47.1428 275.74 46.0351 275.74 44.9273V34.5313H273.226Z" fill="white"/>
</mask>
<g mask="url(#mask8_1022_916)">
<path d="M275.825 34.5313H259.166V53.4912H275.825V34.5313Z" fill="url(#paint8_linear_1022_916)"/>
</g>
<mask id="mask9_1022_916" style="mask-type:luminance" maskUnits="userSpaceOnUse" x="277" y="33" width="14" height="22">
<path d="M282.003 34.0627C281.236 34.3609 280.512 34.8296 279.915 35.3835C279.319 35.8947 278.892 36.5338 278.552 37.2581C278.211 37.9825 278.126 38.792 278.211 39.5589C278.296 40.5389 278.679 41.4336 279.276 42.2005C279.83 42.8822 280.554 43.4361 281.364 43.7769C282.216 44.1604 283.111 44.4586 284.048 44.6717C284.857 44.8847 285.667 45.183 286.434 45.5238C287.03 45.7795 287.499 46.1629 287.882 46.6742C288.223 47.1429 288.351 47.8246 288.351 48.6767C288.309 49.4862 287.925 50.2531 287.329 50.8496C286.732 51.4461 285.837 51.7018 284.602 51.7018C283.664 51.7444 282.77 51.5313 281.96 51.0627C281.364 50.6792 280.895 50.1679 280.554 49.5288C280.299 48.9749 280.171 48.3358 280.171 47.7393H277.572C277.529 48.7193 277.742 49.6566 278.126 50.5514C278.509 51.3183 279.02 52.0426 279.659 52.6391C280.299 53.193 281.065 53.6617 281.875 53.9599C282.684 54.2581 283.537 54.386 284.431 54.4286C285.283 54.4286 286.136 54.3008 286.945 54.0877C287.712 53.8321 288.394 53.4486 289.033 52.98C289.629 52.5113 290.141 51.8722 290.481 51.1905C290.865 50.4662 291.035 49.614 290.993 48.8045C291.035 47.782 290.822 46.7594 290.354 45.8647C289.885 45.0551 289.246 44.3734 288.479 43.9048C287.669 43.3935 286.817 42.9674 285.88 42.6692L283.409 41.817C282.77 41.604 282.173 41.3058 281.619 40.9223C281.151 40.5815 280.852 40.0702 280.767 39.5163C280.639 38.8346 280.852 38.1103 281.278 37.5564C281.705 37.0025 282.216 36.5764 282.855 36.3208C283.366 36.1504 283.877 36.0226 284.431 36.0226C285.156 36.0226 285.837 36.2356 286.476 36.6191C287.073 37.0025 287.542 37.599 287.755 38.2807H290.524C290.439 37.812 290.268 37.3434 290.055 36.9173C289.715 36.3634 289.331 35.8095 288.905 35.3409C288.394 34.787 287.755 34.3609 287.073 34.0627C286.263 33.7218 285.369 33.5514 284.474 33.594C283.622 33.5514 282.77 33.7218 282.003 34.0627Z" fill="white"/>
</mask>
<g mask="url(#mask9_1022_916)">
<path d="M291.078 33.5514H277.614V54.4285H291.078V33.5514Z" fill="url(#paint9_linear_1022_916)"/>
</g>
<path d="M188.652 62.7368H185.627V65.5915H189.035V66.4436H184.604V58.604H188.822V59.4561H185.627V61.9273H188.652V62.7368Z" fill="#fff"/>
<path d="M194.915 64.8672C194.915 65.4636 194.915 65.9749 194.958 66.401H194.063L193.978 65.4636C193.594 66.1454 192.87 66.5288 192.103 66.5288C191.251 66.5288 190.143 66.0175 190.143 64.0576V60.7769H191.166V63.8872C191.166 64.9524 191.507 65.6767 192.401 65.6767C192.998 65.6767 193.552 65.2932 193.765 64.6967C193.85 64.5263 193.85 64.3559 193.85 64.1855V60.7769H194.872L194.915 64.8672Z" fill="#fff"/>
<path d="M196.619 62.5238C196.619 61.8421 196.619 61.2882 196.577 60.7769H197.471V61.8847H197.514C197.727 61.1604 198.366 60.6917 199.091 60.6491H199.346V61.6291H199.048C198.324 61.6291 197.77 62.1403 197.642 62.9073C197.599 63.0777 197.599 63.2481 197.599 63.3759V66.401H196.577L196.619 62.5238Z" fill="#fff"/>
<path d="M205.396 63.5464C205.396 65.6341 203.948 66.5714 202.584 66.5714C201.221 66.5714 199.9 65.421 199.9 63.6742C199.9 61.8847 201.136 60.6917 202.669 60.6917C204.246 60.6491 205.396 61.8421 205.396 63.5464ZM200.923 63.589C200.923 64.8245 201.647 65.7619 202.627 65.7619C203.607 65.7619 204.331 64.8672 204.331 63.5464C204.331 62.2256 203.862 61.416 202.627 61.416C201.391 61.416 200.923 62.5238 200.923 63.589Z" fill="#fff"/>
<path d="M206.674 62.6516C206.674 61.9273 206.632 61.3308 206.632 60.8195H207.527V61.7995H207.569C207.995 61.0752 208.762 60.6491 209.572 60.6917C210.978 60.6917 211.958 61.8421 211.958 63.5463C211.958 65.2506 210.722 66.5714 209.401 66.5714C208.72 66.614 208.038 66.2732 207.654 65.6767H207.612V68.7443H206.589L206.674 62.6516ZM207.697 64.1428C207.697 64.2706 207.74 64.4411 207.782 64.5689C207.953 65.2506 208.592 65.7619 209.316 65.7619C210.424 65.7619 211.02 64.9097 211.02 63.5889C211.02 62.2681 210.424 61.5012 209.359 61.5012C208.634 61.5438 207.995 62.0551 207.825 62.7794C207.782 62.9072 207.782 63.0777 207.74 63.2055V64.1428H207.697Z" fill="#fff"/>
<path d="M213.918 63.802C213.918 65.1654 214.77 65.7619 215.835 65.7619C216.346 65.7619 216.9 65.6767 217.369 65.4636L217.582 66.188C216.985 66.4436 216.346 66.5714 215.707 66.5288C213.96 66.5288 212.938 65.3784 212.938 63.6742C212.938 61.9699 213.96 60.6491 215.579 60.6491C217.198 60.6491 217.923 62.2682 217.923 63.2907C217.923 63.4611 217.923 63.6316 217.88 63.7594L213.918 63.802ZM216.857 63.0351C216.9 62.396 216.602 61.3734 215.451 61.3734C214.301 61.3734 213.96 62.3108 213.918 63.0351H216.857Z" fill="#fff"/>
<path d="M220.138 58.391C219.882 59.3283 219.499 60.2657 219.03 61.1178L218.391 61.203C218.69 60.3083 218.903 59.3709 219.073 58.4762L220.138 58.391Z" fill="#fff"/>
<path d="M220.309 65.3784C220.735 65.6341 221.203 65.7619 221.672 65.7619C222.396 65.7619 222.737 65.421 222.737 64.9098C222.737 64.4411 222.439 64.1855 221.715 63.8872C220.99 63.589 220.223 62.9925 220.223 62.3108C220.223 61.6291 220.948 60.6491 222.183 60.6491C222.652 60.6491 223.121 60.7769 223.547 60.99L223.334 61.7143C222.993 61.5012 222.567 61.3734 222.183 61.3734C221.587 61.3734 221.246 61.7143 221.246 62.1403C221.246 62.5664 221.587 62.822 222.311 63.1203C223.035 63.4185 223.802 63.9724 223.802 64.7819C223.802 65.5915 223.035 66.4862 221.715 66.4862C221.161 66.4862 220.607 66.3584 220.138 66.1027L220.309 65.3784Z" fill="#fff"/>
<path d="M228.063 63.802C228.106 65.1654 228.958 65.7619 230.023 65.7619C230.534 65.7619 231.088 65.6767 231.557 65.4636L231.77 66.188C231.173 66.4436 230.534 66.5714 229.895 66.5288C228.148 66.5288 227.126 65.3784 227.126 63.6742C227.126 61.9699 228.148 60.6491 229.767 60.6491C231.429 60.6491 232.111 62.2682 232.111 63.2907C232.111 63.5037 232.068 63.6316 232.068 63.7594L228.063 63.802ZM231.045 63.0351C231.088 62.396 230.79 61.3734 229.639 61.3734C228.489 61.3734 228.148 62.3108 228.106 63.0351H231.045Z" fill="#fff"/>
<path d="M233.73 60.7769L234.923 64.1002C235.093 64.4837 235.221 64.8672 235.306 65.2506H235.349C235.434 64.8672 235.562 64.4837 235.69 64.1002L236.797 60.8195H237.905L236.371 64.8245C235.647 66.7844 235.136 67.7218 234.454 68.3609C234.113 68.6591 233.644 68.9148 233.176 69L232.92 68.1479C233.261 68.02 233.517 67.8496 233.772 67.6366C234.156 67.3383 234.454 66.9549 234.624 66.4862C234.667 66.401 234.71 66.3158 234.71 66.2306C234.71 66.1454 234.667 66.0601 234.624 65.9749L232.537 60.8195L233.73 60.7769Z" fill="#fff"/>
<path d="M239.268 63.802C239.268 65.1654 240.121 65.7619 241.186 65.7619C241.74 65.7619 242.251 65.6767 242.762 65.4636L242.933 66.188C242.336 66.4436 241.697 66.5714 241.058 66.5288C239.311 66.5288 238.288 65.3784 238.288 63.6742C238.288 61.9699 239.311 60.6491 240.93 60.6491C242.549 60.6491 243.273 62.2682 243.273 63.2907C243.273 63.4611 243.273 63.6316 243.231 63.7594L239.268 63.802ZM242.294 63.0351C242.294 62.396 241.995 61.3734 240.888 61.3734C239.737 61.3734 239.396 62.3108 239.311 63.0351H242.294Z" fill="#fff"/>
<path d="M244.381 65.3784C244.807 65.6341 245.276 65.7619 245.745 65.7619C246.469 65.7619 246.852 65.421 246.852 64.9098C246.852 64.4411 246.554 64.1855 245.83 63.8872C245.106 63.589 244.296 62.9925 244.296 62.3108C244.296 61.6291 245.02 60.6491 246.256 60.6491C246.725 60.6491 247.236 60.7769 247.662 60.99L247.406 61.7143C247.065 61.5012 246.682 61.3734 246.256 61.3734C245.659 61.3734 245.319 61.7143 245.319 62.1403C245.319 62.5664 245.659 62.822 246.384 63.1203C247.108 63.4185 247.832 63.9724 247.832 64.7819C247.832 65.5915 247.065 66.4862 245.745 66.4862C245.191 66.4862 244.637 66.3584 244.168 66.1027L244.381 65.3784Z" fill="#fff"/>
<path d="M256.694 63.5463C256.694 65.6341 255.246 66.5714 253.882 66.5714C252.519 66.5714 251.198 65.421 251.198 63.6742C251.198 61.8847 252.434 60.6917 253.968 60.6917C255.502 60.6917 256.694 61.8421 256.694 63.5463ZM252.221 63.5889C252.221 64.8245 252.945 65.7619 253.925 65.7619C254.905 65.7619 255.629 64.8671 255.629 63.5463C255.629 62.2255 255.161 61.416 253.925 61.416C252.732 61.4586 252.221 62.5238 252.221 63.5889Z" fill="#fff"/>
<path d="M257.973 62.3108C257.973 61.7995 257.973 61.2882 257.887 60.7769H258.825V61.6717H258.867C259.251 61.0326 259.975 60.6065 260.742 60.6491C261.509 60.6491 262.702 61.1178 262.702 63.0351V66.401H261.679V63.1203C261.679 62.2256 261.339 61.4586 260.359 61.4586C259.72 61.4586 259.166 61.8847 258.995 62.4812C258.953 62.6516 258.91 62.822 258.91 62.9499V66.3584H257.887L257.973 62.3108Z" fill="#fff"/>
<path d="M270.968 62.7368H267.943V65.5915H271.351V66.4436H266.92V58.604H271.138V59.4561H267.9V61.9273H270.925V62.7368H270.968Z" fill="#fff"/>
<path d="M276.592 65.0802C276.592 65.5489 276.592 65.9749 276.677 66.4436H275.74L275.654 65.7193H275.612C275.228 66.2732 274.589 66.5714 273.908 66.5714C272.757 66.5714 272.161 65.7619 272.161 64.9524C272.161 63.589 273.396 62.8646 275.569 62.8646V62.7368C275.569 62.2682 275.441 61.4586 274.291 61.4586C273.78 61.4586 273.268 61.5865 272.8 61.8847L272.587 61.203C273.141 60.8621 273.78 60.6917 274.419 60.7343C276.166 60.7343 276.592 61.8847 276.592 63.0351V65.0802ZM275.612 63.5464C274.461 63.5037 273.226 63.7168 273.226 64.8246C273.183 65.3358 273.567 65.7619 274.078 65.8045C274.121 65.8045 274.163 65.8045 274.206 65.8045C274.802 65.8471 275.356 65.4636 275.569 64.8672C275.612 64.7819 275.654 64.6541 275.654 64.5263V63.5464H275.612Z" fill="#fff"/>
<path d="M278.253 62.5238C278.253 61.8421 278.211 61.2882 278.168 60.7769H279.063V61.8847H279.106C279.319 61.203 279.958 60.6917 280.682 60.6491H280.98V61.6291H280.639C279.915 61.6291 279.404 62.1403 279.233 62.9073C279.233 63.0777 279.191 63.2481 279.191 63.3759V66.401H278.168L278.253 62.5238Z" fill="#fff"/>
<path d="M283.537 59.4561V60.8195H285.028V61.5864H283.537V64.6115C283.537 65.2932 283.75 65.7193 284.304 65.7193C284.517 65.7193 284.687 65.7193 284.9 65.6341L284.985 66.4436C284.687 66.5288 284.389 66.5714 284.09 66.5714C283.664 66.5714 283.281 66.4436 282.94 66.1453C282.642 65.7193 282.514 65.1654 282.557 64.6541V61.5864H281.705V60.8195H282.557V59.7544L283.537 59.4561Z" fill="#fff"/>
<path d="M286.178 58.1353H287.201V61.6716H287.243C287.414 61.3734 287.669 61.1178 287.968 60.9473C288.309 60.7343 288.649 60.6491 289.033 60.6491C289.757 60.6491 290.993 61.1178 290.993 63.0351V66.401H289.97V63.2055C289.97 62.3107 289.629 61.5438 288.649 61.5438C288.01 61.5864 287.499 61.9699 287.286 62.5664C287.243 62.7368 287.201 62.9072 287.201 63.0351V66.4436H286.178V58.1353Z" fill="#fff"/>
<path d="M1 1H100.273V68.3183H1V1Z" fill="white"/>
<path d="M2.9173 2.70425H98.5689V66.4862H2.9173V2.70425Z" fill="#243F9C"/>
<path d="M76.2857 33.6792L74.4536 35.0426L74.9649 37.7268L72.8772 36.193L70.7894 37.6842L71.3007 35.0426L69.5112 33.6792H72.0676L72.8772 31.208L73.7293 33.6792H76.2857ZM28.6516 35.0426L26.8621 33.6792H29.3759L30.228 31.208L31.0376 33.6792H33.594L31.8045 35.0426L32.3158 37.7268L30.228 36.193L28.1403 37.6842L28.6516 35.0426ZM73.5589 44.5012L71.7268 45.9072L72.2381 48.5489L70.1503 47.0576L68.0626 48.5062L68.5739 45.9072L66.7844 44.5012H69.3408L70.1503 42.0301L71.0025 44.5438L73.5589 44.5012ZM31.1228 45.9072L29.3333 44.5012H31.8897L32.6992 42.0301L33.5514 44.5438L36.0651 44.5012L34.2757 45.9072L34.7869 48.5489L32.6992 47.0576L30.6115 48.5062L31.1228 45.9072ZM73.5589 22.9849L71.7268 24.3484L72.2381 27.0326L70.1503 25.4987L68.0626 26.99L68.5739 24.3484L66.7844 22.9849H69.3408L70.1503 20.5138L71.0025 22.9849H73.5589ZM31.1228 24.3484L29.3333 22.9849H31.8897L32.6992 20.5138L33.5514 22.9849H36.0651L34.2757 24.3484L34.7869 27.0326L32.6992 25.4987L30.6115 26.99L31.1228 24.3484ZM44.0326 52.2982L42.2431 53.6616L42.7118 56.3458L40.6666 54.812L38.5789 56.3032L39.0476 53.6616L37.2581 52.2982H39.8145L40.6666 49.827L41.4762 52.2982H44.0326ZM60.3508 53.6616L58.5614 52.2982H61.1178L61.9273 49.827L62.7794 52.2982H65.3358L63.5037 53.6616L64.015 56.3458L61.9273 54.812L59.8396 56.3032L60.3508 53.6616ZM44.0326 14.8471L42.2431 16.2105L42.7118 18.8947L40.6666 17.3609L38.5789 18.8521L39.0476 16.2105L37.2581 14.8471H39.8145L40.6666 12.3759L41.4762 14.8471H44.0326ZM60.3508 16.2105L58.5614 14.8471H61.1178L61.9273 12.3759L62.7794 14.8471H65.3358L63.5037 16.2105L64.015 18.8947L61.9273 17.3609L59.8396 18.8521L60.3508 16.2105ZM54.9398 12.0777L53.1077 13.4411L53.619 16.1253L51.5313 14.5915L49.4436 16.0827L49.9549 13.4411L48.1654 12.0777H50.7218L51.5313 9.60651L52.3834 12.0777H54.9398ZM49.9549 56.6015L48.1654 55.1955H50.7218L51.5313 52.7243L52.3834 55.1955H54.9398L53.1077 56.6015L53.619 59.2431L51.5313 57.7519L49.4436 59.2005L49.9549 56.6015Z" fill="#FCEC00"/>
<defs>
<linearGradient id="paint0_linear_1022_916" x1="108.23" y1="33.723" x2="108.532" y2="33.723" gradientUnits="userSpaceOnUse">
<stop stop-color="#236797"/>
<stop offset="1" stop-color="#fff"/>
</linearGradient>
<linearGradient id="paint1_linear_1022_916" x1="108.868" y1="43.9805" x2="109.193" y2="43.9805" gradientUnits="userSpaceOnUse">
<stop stop-color="#0E294D"/>
<stop offset="1" stop-color="#fff"/>
</linearGradient>
<linearGradient id="paint2_linear_1022_916" x1="108.634" y1="47.3608" x2="108.959" y2="47.3608" gradientUnits="userSpaceOnUse">
<stop stop-color="#0E294D"/>
<stop offset="1" stop-color="#fff"/>
</linearGradient>
<linearGradient id="paint3_linear_1022_916" x1="108.873" y1="43.9804" x2="109.197" y2="43.9804" gradientUnits="userSpaceOnUse">
<stop stop-color="#0E294D"/>
<stop offset="1" stop-color="#fff"/>
</linearGradient>
<linearGradient id="paint4_linear_1022_916" x1="108.966" y1="43.9784" x2="109.291" y2="43.9784" gradientUnits="userSpaceOnUse">
<stop stop-color="#0E294D"/>
<stop offset="1" stop-color="#fff"/>
</linearGradient>
<linearGradient id="paint5_linear_1022_916" x1="108.912" y1="43.5265" x2="109.246" y2="43.5265" gradientUnits="userSpaceOnUse">
<stop stop-color="#0E294D"/>
<stop offset="1" stop-color="#fff"/>
</linearGradient>
<linearGradient id="paint6_linear_1022_916" x1="108.661" y1="40.2325" x2="108.983" y2="40.2325" gradientUnits="userSpaceOnUse">
<stop stop-color="#0E294D"/>
<stop offset="1" stop-color="#fff"/>
</linearGradient>
<linearGradient id="paint7_linear_1022_916" x1="108.867" y1="43.9805" x2="109.201" y2="43.9805" gradientUnits="userSpaceOnUse">
<stop stop-color="#0E294D"/>
<stop offset="1" stop-color="#fff"/>
</linearGradient>
<linearGradient id="paint8_linear_1022_916" x1="108.973" y1="44.0034" x2="109.289" y2="44.0034" gradientUnits="userSpaceOnUse">
<stop stop-color="#0E294D"/>
<stop offset="1" stop-color="#fff"/>
</linearGradient>
<linearGradient id="paint9_linear_1022_916" x1="108.869" y1="43.9805" x2="109.192" y2="43.9805" gradientUnits="userSpaceOnUse">
<stop stop-color="#0E294D"/>
<stop offset="1" stop-color="#fff"/>
</linearGradient>
</defs>
</svg>
